<svg width="1629" height="1630" viewBox="0 0 1629 1630" fill="none" xmlns="http://www.w3.org/2000/svg">
<g clip-path="url(#clip0_569_2)">
<path fill-rule="evenodd" clip-rule="evenodd" d="M670.104 836.209H731.896V898H670.104V836.209ZM670.104 916.453H731.896V978.245H670.104V916.453ZM579.203 916.453H640.995V978.245H579.203V916.453ZM579.203 836.209H640.995V898H579.203V836.209ZM647.359 518.802L165.745 1092.32C168.75 1099.33 171.969 1106.34 175.188 1113.28L647.359 670.141L1255.56 1174.42C1314.85 1187.08 1368.85 1187.15 1414.91 1174.28L996.229 817.328V703.823H946.594V774.844L647.359 518.802Z" fill="#0B6B3A"/>
<path fill-rule="evenodd" clip-rule="evenodd" d="M1439.22 852.297L1568.74 994.052C1566.03 1007.35 1562.73 1019.87 1558.73 1031.74L1409.83 877.974L1439.22 852.297ZM1302.69 702.896L1420.7 831.99L1390.8 858.094L1253.13 715.412L1302.69 702.896ZM1121.89 579.38L1200.2 590.823L1284.17 682.724L1233.74 695.459L1121.89 579.38ZM1391.95 893.636L1547.86 1059.49C1539.92 1076.8 1530.41 1092.32 1519.54 1105.98L1344.46 935.047L1391.95 893.636ZM1228.89 721.563L1372.99 873.682L1324.51 916.021L1143.92 743.016L1228.89 721.563ZM946.312 553.776L1089.71 574.662L1209.86 701.391L1123.32 723.209L946.312 553.776ZM1326.65 950.568L1503.95 1123.29C1487.78 1139.31 1469.26 1152.11 1448.66 1161.77C1393.16 1115.42 1278.02 1015.36 1265.15 1004.21L1326.65 950.568ZM1119.67 749.167L1306.91 931.401L1244.26 986.11L1021.69 792.724V773.844L1119.67 749.167ZM706.432 518.802L914.198 549.057L1099.36 729.287L1021.69 748.88V677.505H919.922V704.323L706.432 518.802Z" fill="#007CC3"/>
<path fill-rule="evenodd" clip-rule="evenodd" d="M668.745 476.677L621.182 316.688L584.422 508.432C567.688 511.01 551.167 514.943 534.932 520.094L413.563 380.344L455.401 557.068C436.948 568.583 419.281 581.74 402.833 596.333L245.636 522.453L345.333 659.266C330.958 678.792 318.224 699.75 307.5 721.703L153.375 728.141L280.75 794.37C277.604 806.526 275.099 818.901 273.167 831.484C270.953 846.219 269.734 860.667 269.38 874.828L127.557 922.818L252.141 941.698L271.167 918.026L642.495 472.458L668.745 476.677ZM810.568 498.635L831.594 357.313L749.344 489.193L810.568 498.635ZM966.193 522.667L1020.69 459.729L927.214 516.656L966.193 522.667Z" fill="#F8C734"/>
<path fill-rule="evenodd" clip-rule="evenodd" d="M540.865 1582.87C117.469 1431.96 -103.167 965.802 47.9531 541.62C199.073 117.511 664.88 -103.989 1088.28 46.8491C1508.67 196.682 1729.16 657.406 1584.19 1079.16C1684.25 679.651 1443.3 255.255 1062.31 119.511C679.042 -17.0207 258.578 180.089 123.193 559.927C11.6927 872.823 128.484 1212.11 387.458 1398.28C568.115 1496.33 712.083 1499.19 827.661 1428.46C758.073 1433.04 688.839 1435.04 622.328 1417.8C395.323 1359.02 344.26 1096.11 584.281 1026.88C676.609 1000.27 873.286 1067.29 1026.63 1126.58C1239.32 1208.82 1333.44 1261.82 1562.38 1135.73L1562.23 1135.88C1394.31 1528.66 948.026 1727.98 540.865 1582.87Z" fill="#0B6B3A"/>
</g>
<defs>
<clipPath id="clip0_569_2">
<rect width="1629" height="1630" fill="white"/>
</clipPath>
</defs>
</svg>
